<svg width="403" height="404" viewBox="0 0 403 404" fill="none" xmlns="http://www.w3.org/2000/svg">
<path d="M201.539 0.515625C312.712 0.515625 402.836 90.6393 402.836 201.812C402.836 312.986 312.712 403.109 201.539 403.109C90.3659 403.109 0.242188 312.986 0.242188 201.812C0.242188 90.6393 90.3659 0.515625 201.539 0.515625ZM201.537 8.98438C95.0421 8.98438 8.71094 95.3155 8.71094 201.811C8.71094 308.306 95.0421 394.637 201.537 394.637C308.032 394.637 394.363 308.306 394.363 201.811C394.363 95.3155 308.032 8.98438 201.537 8.98438ZM201.537 14.7617C304.841 14.7617 388.586 98.5064 388.586 201.811C388.586 305.115 304.841 388.859 201.537 388.859C98.233 388.859 14.4883 305.115 14.4883 201.811C14.4883 98.5064 98.233 14.7617 201.537 14.7617ZM198.678 368.555H189.453L196.916 373.977L194.065 382.75L201.528 377.328L208.991 382.75L206.141 373.977L213.604 368.555H204.379L201.528 359.781L198.678 368.555ZM139.443 357.07H130.219L137.682 362.492L134.831 371.266L142.294 365.844L149.757 371.266L146.906 362.492L154.369 357.07H145.145L142.294 348.297L139.443 357.07ZM257.912 357.07H248.688L256.15 362.492L253.3 371.266L260.763 365.844L268.226 371.266L265.375 362.492L272.838 357.07H263.613L260.763 348.297L257.912 357.07ZM290.441 336.764C289.18 336.547 287.946 336.569 286.738 336.828C285.531 337.088 284.339 337.568 283.165 338.27C281.225 339.429 279.996 340.775 279.479 342.308C278.973 343.857 279.193 345.423 280.139 347.006C280.922 348.316 281.851 349.136 282.925 349.465C284.009 349.81 285.328 349.738 286.883 349.248L289.96 348.31C290.793 348.043 291.463 347.966 291.97 348.079C292.469 348.219 292.883 348.562 293.208 349.106C293.645 349.838 293.72 350.544 293.434 351.224C293.14 351.93 292.49 352.584 291.486 353.184C289.937 354.109 288.331 354.457 286.669 354.226V357.24C288.889 357.438 290.995 356.942 292.986 355.752C294.824 354.654 295.99 353.357 296.482 351.862C296.985 350.384 296.778 348.879 295.863 347.347C295.141 346.138 294.238 345.361 293.154 345.016C292.07 344.67 290.75 344.743 289.195 345.233L286.134 346.196C285.29 346.446 284.619 346.501 284.119 346.36C283.613 346.247 283.171 345.876 282.795 345.246C282.327 344.463 282.247 343.692 282.555 342.931C282.855 342.197 283.541 341.509 284.613 340.868C285.515 340.329 286.439 339.962 287.385 339.767C288.341 339.588 289.324 339.59 290.333 339.772L290.441 336.764ZM118.81 337.623C116.729 336.352 114.716 336.109 112.771 336.896C110.817 337.699 108.98 339.506 107.265 342.314C105.538 345.14 104.77 347.598 104.957 349.688C105.144 351.777 106.278 353.457 108.359 354.729C110.44 356 112.453 356.242 114.397 355.455C116.342 354.668 118.178 352.862 119.904 350.036C121.62 347.228 122.389 344.77 122.212 342.664C122.025 340.575 120.89 338.894 118.81 337.623ZM201.534 49.4922C117.413 49.4922 49.2188 117.686 49.2188 201.808C49.2188 285.929 117.413 354.123 201.534 354.123C285.656 354.123 353.85 285.929 353.85 201.808C353.85 117.686 285.656 49.4922 201.534 49.4922ZM110.006 343.989C112.455 339.98 114.873 338.703 117.259 340.16C119.644 341.618 119.613 344.352 117.163 348.361C114.713 352.371 112.296 353.648 109.91 352.19C107.525 350.733 107.556 347.999 110.006 343.989ZM291.278 333.672L293.02 336.009L300.484 330.448L303.753 334.836L297.434 339.545L299.175 341.882L305.495 337.174L308.551 341.275L301.086 346.837L302.827 349.174L312.82 341.729L301.271 326.228L291.278 333.672ZM201.534 55.2695C282.465 55.2695 348.072 120.877 348.072 201.808C348.072 282.738 282.465 348.346 201.534 348.346C120.603 348.346 54.9961 282.738 54.9961 201.808C54.9961 120.877 120.604 55.2696 201.534 55.2695ZM102.204 336.754L95.9072 331.965L94.1436 334.285L100.44 339.073L97.2178 343.312L89.7842 337.659L88.0205 339.979L97.9629 347.539L109.664 332.151L107.155 330.243L102.204 336.754ZM304.485 323.608L306.456 325.756L309.984 322.519L319.112 332.468L315.585 335.705L317.556 337.853L326.935 329.246L324.964 327.099L321.436 330.336L312.307 320.388L315.835 317.15L313.864 315.003L304.485 323.608ZM88.9971 325.934L83.2168 320.533L81.2266 322.663L87.0068 328.063L83.373 331.953L76.5498 325.578L74.5596 327.707L83.6865 336.235L96.8848 322.11L94.5811 319.958L88.9971 325.934ZM75.125 303.741L78.2744 307.348L68.1064 316.23L64.9561 312.625L62.7617 314.542L71.1357 324.128L73.3311 322.211L70.1807 318.604L80.3486 309.722L83.499 313.327L85.6943 311.41L77.3193 301.824L75.125 303.741ZM321.387 306.821C319.554 308.88 318.771 310.983 319.036 313.13C319.303 315.305 320.621 317.447 322.99 319.557C325.36 321.666 327.639 322.713 329.829 322.698C332.021 322.711 334.046 321.673 335.905 319.585L339.267 315.809L324.827 302.955L321.387 306.821ZM223.671 82.2168C223.005 82.0993 222.888 82.1389 222.888 82.4326C222.889 83.3346 228.275 90.2676 231.408 93.4209C234.405 96.4372 237.48 98.1409 241.613 99.0811L243.631 99.5322L248.097 102.607C250.917 104.546 252.347 105.643 251.975 105.564C249.076 104.977 245.824 104.918 242.827 105.428C237.734 106.309 229.586 108.875 228.764 109.854C228.255 110.462 229.626 110.775 235.639 111.421C238.165 111.676 241.28 112.048 242.573 112.225C247.666 112.89 258.184 112.773 260.397 111.989C261.337 111.676 261.26 111.618 264.961 114.731C268.232 117.454 269.289 118.433 268.819 118.276C264.569 116.768 258.261 116.063 252.15 116.416C248.801 116.592 247.764 116.828 247.764 117.396C247.764 117.826 248.214 118.12 250.212 118.962C251.074 119.314 254.207 120.745 257.165 122.116C266.606 126.465 269.975 127.482 276.302 127.894L278.339 128.031L279.083 128.933C281.06 131.341 285.366 137.173 285.37 137.472C285.37 137.53 284.959 137.276 284.45 136.904C282.962 135.847 279.572 134.123 277.124 133.202C270.994 130.872 264.022 129.285 264.021 130.205C264.021 130.362 264.922 131.282 266.038 132.242C269.172 134.965 278.319 142.506 280.023 143.76C283.902 146.639 289.445 149.831 291.619 150.419L292.872 150.771L293.558 152.261C295.203 155.884 297.965 163.188 297.456 162.642C293.793 158.646 291.815 156.805 289.621 155.336C285.469 152.555 277.496 148.519 277.026 148.97C276.831 149.185 277.497 150.204 279.024 151.967C281.923 155.336 284.371 158.861 286.702 163.033C287.407 164.267 288.544 166.03 289.249 166.931C291.913 170.358 297.143 175.118 300.159 176.881C300.864 177.292 301.472 177.763 301.53 177.92C301.726 178.57 302.627 185.285 302.901 188.301C303.176 191.258 303.273 194.431 303.058 193.491C302.392 190.455 300.374 186.028 298.709 183.933C297.141 181.973 286.232 170.927 286.036 171.104C285.727 171.448 290.248 185.815 292.226 190.749C294.654 196.821 298.063 202.383 301.726 206.301L302.94 207.594L302.783 209.161C302.333 213.568 300.923 222.167 300.609 222.5C300.57 222.537 300.433 221.656 300.296 220.561C299.806 216.173 298.631 213.117 294.89 206.634C291.423 200.582 289.053 197.037 288.622 197.174C288.27 197.291 288.27 199.055 288.603 204.656C289.092 213.059 289.66 219.954 290.091 222.872C290.659 226.613 293.206 232.744 295.419 235.662L296.339 236.916L295.242 239.579C293.558 243.673 288.544 253.682 289.171 251.724C289.23 251.528 289.386 250.392 289.504 249.197C289.837 246.063 289.621 240.128 289.092 237.269C287.525 228.748 285.409 222.852 284.332 223.93C284.214 224.049 284.019 225.145 283.882 226.397C283.627 228.572 283.235 230.472 281.179 239.481C279.788 245.593 279.455 247.767 279.357 251.43C279.24 255.386 279.514 257.306 280.807 261.027L281.649 263.554L280.631 264.847C278.594 267.452 273.54 273.309 273.324 273.309C273.286 273.307 273.345 273.014 273.442 272.662C274.813 267.902 275.302 260.068 274.695 252.351C274.519 249.925 274.324 247.929 274.304 247.885C274.265 247.846 273.696 248.903 273.03 250.235C270.915 254.368 267.586 260.361 266.254 262.398C262.474 268.177 261.513 271.389 261.043 280.047L260.809 284.474L258.066 286.393C254.6 288.821 249.919 291.778 249.762 291.622C249.723 291.583 249.996 291.132 250.368 290.604C252.562 287.528 254.893 282.181 256.088 277.422C256.617 275.366 257.615 269.491 257.518 269.156C257.42 268.882 246.96 279.009 244.101 282.143C237.931 288.939 236.109 292.014 235.345 296.989L235.11 298.458L232.191 299.418C230.566 299.947 227.941 300.73 226.315 301.142L223.377 301.886L224.259 301.181C227.549 298.517 232.016 292.934 234.053 288.899C234.699 287.626 235.599 284.924 235.619 284.238C235.619 284.16 234.582 284.591 233.328 285.198C230.077 286.726 228.588 287.352 224.553 288.88C218.285 291.23 215.993 292.641 212.977 296.049C210.235 299.143 208.491 302.081 208.647 303.296L208.746 304.002L207.551 304.139C206.904 304.197 204.006 304.256 201.127 304.256C197.154 304.256 195.84 304.197 195.721 304.002C195.642 303.884 195.172 302.826 194.663 301.671C194.173 300.515 193.448 299.065 193.096 298.458C190.589 294.325 186.789 291.7 179.209 288.88C175.037 287.313 172.412 286.197 170.062 284.924C168.946 284.337 168.046 283.945 168.044 284.042C168.044 284.551 168.945 287.059 169.552 288.293C171.628 292.406 176.78 298.792 180.031 301.279C180.56 301.671 180.912 302.023 180.814 302.062C180.42 302.179 172.118 299.928 169.317 298.909L168.533 298.635L168.396 297.205C167.907 292.504 166.144 289.331 160.738 283.494C159.387 282.045 155.587 278.107 152.296 274.777L146.282 268.706L146.4 269.587C147.203 275.561 149.025 282.24 151.022 286.432C152.061 288.586 152.746 289.762 154 291.505L154.764 292.543L153.823 291.994C150.082 289.859 143.168 285.335 142.874 284.865C142.815 284.787 142.933 283.983 143.109 283.082C144.147 277.578 141.542 268.47 136.704 260.792C135.313 258.598 132.356 253.232 130.711 249.941C130.241 249.001 129.771 248.238 129.673 248.237C129.281 248.237 129.105 262.966 129.457 267.295C129.692 270.174 130.182 272.212 131.024 273.936L131.632 275.169L130.613 274.19C129.125 272.741 125.227 268.353 123.405 266.081L121.838 264.103L122.21 263.456C123.248 261.811 124.306 256.855 124.502 252.82C124.678 249.099 124.13 245.514 121.799 235.212C120.33 228.807 119.664 225.339 119.664 224.164C119.664 223.303 119.389 222.774 119.076 223.087C118.959 223.204 118.508 224.106 118.097 225.085C116.079 229.786 113.592 241.969 113.847 245.984C113.964 247.59 114.786 252.957 115.08 253.839C115.139 254.054 114.728 253.466 114.18 252.546C112.769 250.215 109.126 242.792 107.833 239.619L106.775 236.994L107.441 236.484C109.616 234.858 112.769 228.454 113.494 224.185C114.375 219.014 115.844 198.313 115.354 197.82C114.826 197.291 112.025 201.209 108.676 207.202C104.876 214.018 103.7 217.661 103.426 223.459L103.309 226.201L102.858 224.341C101.84 220.169 100.88 214.724 100.469 210.826C100.351 209.69 100.214 208.515 100.175 208.201C100.096 207.712 100.116 207.672 100.37 207.888C100.801 208.24 101.233 207.789 103.896 204.264C106.776 200.425 109.283 196.683 110.066 195.038C110.654 193.784 112.73 188.202 113.161 186.733C113.259 186.361 113.729 184.912 114.16 183.521C115.335 179.859 117.254 173.455 117.47 172.475C117.587 172.024 117.587 171.651 117.509 171.651C117.015 171.656 108.343 180.153 106.306 182.62C103.328 186.224 101.272 190.573 100.175 195.606C99.9789 196.449 99.8028 197.095 99.7637 197.056C99.6266 196.938 100.076 189.084 100.351 186.439C100.507 185.029 100.821 182.542 101.075 180.896C101.428 178.487 101.566 177.92 101.82 177.92C102.291 177.92 103.564 177.136 105.601 175.628C110.282 172.141 113.729 168.145 119.762 159.214C121.348 156.844 123.66 153.573 124.894 151.947C126.108 150.322 127.106 148.852 127.106 148.676C127.106 148.245 126.479 148.46 124.031 149.694C119.507 151.966 112.828 156.12 110.556 158.059C109.126 159.293 106.991 161.721 105.601 163.699C105.15 164.346 104.777 164.816 104.777 164.757C104.778 164.13 107.735 156.276 109.204 152.927L110.086 150.968L111.222 150.732C113.298 150.302 118.038 147.774 122.602 144.68C125.814 142.486 127.832 140.919 130.927 138.157C132.337 136.904 134.628 134.965 136.019 133.81C139.073 131.323 139.681 130.735 139.604 130.343C139.506 129.853 137.605 129.99 134.647 130.695C128.321 132.204 123.13 134.456 118.802 137.551C117.96 138.158 117.079 138.785 116.863 138.941C116.021 139.549 122.171 130.871 124.247 128.56C124.756 127.992 124.796 127.973 126.637 127.973C131.729 127.973 137.449 126.464 143.854 123.428C145.695 122.566 148.633 121.196 150.415 120.412C155.116 118.316 155.802 117.963 155.86 117.474C155.9 117.141 155.763 117.003 155.273 116.808C153.53 116.2 144.285 116.239 140.23 116.886C138.37 117.18 135.568 117.924 134.197 118.473L133.473 118.767L134.452 117.885C135.921 116.553 139.584 113.477 140.936 112.459L142.11 111.559L143.678 112.009C147.517 113.106 153.138 113.145 161.482 112.106C168.004 111.303 171.569 110.932 172.921 110.912C174.155 110.912 175.311 110.579 175.448 110.188C175.625 109.6 169.003 107.093 164.792 106.152C163.617 105.878 161.796 105.565 160.738 105.428C158.309 105.134 152.551 105.31 150.905 105.722C150.259 105.878 149.71 105.976 149.69 105.956C149.681 105.929 150.422 105.325 151.355 104.625C152.296 103.92 154.235 102.45 155.665 101.354C157.114 100.276 158.368 99.4344 158.466 99.4932C158.878 99.7279 162.814 99.1401 164.303 98.6113C167.535 97.4753 171.041 94.9093 174.566 91.1094C179.189 86.115 181.402 82.8632 180.561 82.3145C180.228 82.099 180.266 82.0996 179.307 82.4521C178.876 82.6284 176.408 83.3534 173.822 84.0977C168.554 85.6058 167.084 86.1346 164.812 87.2705C161.052 89.1509 158.955 91.5403 157.858 95.2031L157.428 96.6133L155.646 97.749C154.647 98.3562 152.394 99.8258 150.611 101.001C148.829 102.176 147.301 103.195 147.184 103.254C147.086 103.312 147.204 103.116 147.438 102.803C149.182 100.55 150.788 97.5733 151.787 94.7725C152.414 92.9509 154.568 84.8809 154.411 84.8809C153.901 84.8817 147.262 89.1315 144.833 91.0312C143.051 92.4024 139.975 95.5167 138.702 97.2012C137.253 99.1403 135.862 101.824 135.313 103.802C134.726 105.917 134.726 108.581 135.333 110.344L135.765 111.617L135.099 112.186C131.808 115.045 129.379 117.336 127.205 119.608L124.6 122.331L125.56 120.471C126.715 118.218 127.537 115.789 128.125 112.852C128.478 111.03 128.557 109.952 128.557 106.721C128.576 103.137 128.204 97.6544 127.91 97.084C127.832 96.9469 127.067 97.7297 126.029 99.042C117.313 109.854 115.668 112.89 114.943 119.452C114.473 123.898 115.531 129.891 116.823 130.088C117.078 130.127 117.745 129.696 118.646 128.952L120.075 127.737L118.332 130.068C115.472 133.849 111.594 139.862 110.145 142.702C109.87 143.25 109.615 143.642 109.557 143.603C109.518 143.542 109.577 143.034 109.675 142.447C110.067 140.43 110.223 137.159 110.066 134.573C109.831 130.793 109.479 129.382 106.6 120.333C105.993 118.453 105.444 116.828 105.365 116.749C105.209 116.573 104.934 117.415 102.623 124.643C100.292 131.988 99.509 135.122 99.0977 138.941C98.5689 143.662 99.4694 147.305 102.407 152.515L103.7 154.826L104.269 154.18C104.582 153.827 104.777 153.671 104.719 153.827C104.66 153.984 104.269 155.003 103.838 156.1C102.8 158.646 101.683 161.917 100.763 164.992C100.371 166.344 99.9982 167.578 99.9395 167.734C99.8805 167.89 99.6265 167.146 99.3916 166.069C98.3143 161.447 96.218 156.511 93.7305 152.77C92.7316 151.242 91.3019 149.009 90.5771 147.814C89.2648 145.621 88.6374 144.837 88.4023 145.072C88.3239 145.156 88.1876 146.818 88.1094 148.773C88.0114 150.752 87.8548 153.592 87.7373 155.101C87.4631 159.096 87.502 165.52 87.835 167.93C88.736 174.609 90.7726 178.449 94.8271 181.073C95.493 181.504 96.2374 181.895 96.4922 181.954C97.021 182.091 97.0216 181.935 96.6494 185.323C96.2968 188.594 95.9639 193.844 95.9639 196.233V197.996L94.8662 195.959C92.7508 191.983 89.2255 186.733 86.8555 184.05C85.6212 182.659 79.0808 177.333 78.5898 177.332C78.3744 177.332 78.3152 177.469 78.3936 177.763C78.6482 178.958 79.765 184.658 80.3135 187.615C82.5856 199.975 86.0134 206.399 92.6338 210.747C94.0438 211.667 96.4913 213.019 96.8838 213.078C96.9034 213.078 97.0999 214.273 97.335 215.723C97.8638 219.052 98.745 223.283 99.4697 226.123C99.7831 227.318 99.9787 228.219 99.9004 228.141C99.8219 228.042 99.3519 227.435 98.8623 226.789C96.6686 223.89 94.9837 222.577 83.5254 214.899C80.5873 212.941 76.2785 210.414 76.2197 210.61C76.1423 210.847 83.4278 225.574 85.0928 228.552C87.1298 232.156 88.2267 233.645 90.5771 235.995C92.9276 238.365 95.6697 240.324 98.1572 241.46C100.547 242.537 103.642 243.536 104.641 243.536C105.287 243.536 105.562 243.615 105.562 243.791C105.563 244.518 111.242 255.289 113.103 258.129C113.416 258.598 113.239 258.5 112.123 257.6C110.047 255.935 107.579 254.446 103.896 252.645C99.9203 250.705 97.7654 249.941 93.0449 248.727C91.106 248.237 88.56 247.492 87.4043 247.081C84.1137 245.906 84.0547 246.121 86.8164 249.451C87.9133 250.764 89.7351 253.055 90.8516 254.505C95.1803 260.126 102.603 266.707 106.795 268.607C108.538 269.391 112.104 270.449 114.454 270.86C115.962 271.134 116.922 271.173 118.802 271.075C120.134 271.016 121.427 270.88 121.682 270.782C122.112 270.606 122.309 270.762 123.719 272.388C127.127 276.305 132.082 281.143 135.921 284.316C136.646 284.904 136.097 284.688 132.904 283.062C128.556 280.869 128.145 280.751 122.015 279.89C112.026 278.48 100.666 277.579 100.664 278.186C100.664 278.46 101.84 279.381 106.051 282.417C113.337 287.686 116.55 289.624 120.644 291.191C126.382 293.405 129.36 294.071 133.669 294.071C137.566 294.071 140.289 293.542 143.521 292.171C145.127 291.485 145.127 291.466 144.794 291.074C144.598 290.859 145.01 291.054 145.715 291.524C149.436 294.032 157.937 298.595 161.815 300.143C162.442 300.397 162.912 300.633 162.893 300.672C162.853 300.711 161.893 300.574 160.777 300.397C159.269 300.162 157.525 300.064 154.137 300.064C148.183 300.064 147.575 300.143 135.333 302.474C133.12 302.885 129.888 303.492 128.145 303.806C126.383 304.099 124.973 304.432 125.011 304.53C125.109 304.804 140.248 309.29 142.874 309.819C146.674 310.583 149.201 310.779 153.687 310.661C161.208 310.465 165.654 308.996 169.807 305.353L171.647 303.747L174.194 304.472C177.152 305.314 181.168 306.214 184.066 306.724L186.084 307.077L184.674 307.43C180.952 308.409 178.836 309.329 167.75 314.833C159.328 319.025 156.292 320.651 156.292 320.944C156.293 321.336 167.711 320.905 172.745 320.317C178.367 319.632 184.497 317.869 189.296 315.519C192.175 314.108 194.349 312.365 196.641 309.682L197.914 308.174H205.593L208.315 310.739C213.369 315.518 214.132 315.93 222.691 318.516C228.078 320.141 229.097 320.298 240.007 321.022C248.331 321.571 248.625 321.551 247.392 320.514C246.628 319.867 242.221 317.634 240.262 316.89C238.46 316.224 237.245 315.597 234.934 314.147C230.644 311.464 224.494 308.918 218.833 307.488C218.052 307.293 217.427 307.098 217.462 307.077C217.482 307.058 219.264 306.685 221.419 306.234C225.317 305.451 229.684 304.315 232.485 303.395C233.484 303.062 233.817 303.002 233.523 303.218C233.269 303.374 233.073 303.727 233.073 303.962C233.073 305.157 237.872 308.154 242.063 309.545C244.806 310.466 247.235 310.759 252.269 310.778C255.951 310.778 257.048 310.72 258.928 310.367C262.708 309.662 274.792 306.117 276.811 305.099C277.516 304.746 277.477 304.335 276.713 304.08C275.733 303.786 268.702 302.396 264.314 301.632C255.598 300.124 250.799 299.634 247.626 299.947C244.277 300.28 240.301 300.986 238.264 301.612C236.423 302.161 236.892 301.886 239.732 300.75C241.299 300.123 244.297 298.772 246.393 297.733C259.653 291.211 271.189 282.103 281.198 270.253C282.001 269.313 282.022 269.293 281.982 269.881C281.924 270.664 282.648 270.978 284.803 271.115C289.229 271.37 295.81 269.528 299.669 266.942C306.466 262.418 309.6 259.46 313.204 254.172C314.889 251.724 317.161 249.138 319.021 247.571C319.707 247.003 319.765 246.612 319.139 246.514C318.923 246.494 317.395 246.846 315.73 247.336C314.066 247.826 311.441 248.531 309.933 248.903C306.564 249.746 304.664 250.451 301.491 251.959C296.888 254.153 292.598 256.934 289.621 259.617C288.093 261.008 288.054 261.028 288.622 260.186C291.208 256.405 295.575 248.433 297.221 244.516C297.515 243.81 297.789 243.203 297.828 243.164C297.867 243.125 298.083 243.243 298.298 243.438C298.631 243.752 298.807 243.771 299.747 243.575C302.567 243.007 307.641 240.637 310.344 238.64C312.42 237.092 314.908 234.605 316.083 232.881C317.905 230.237 323.468 219.62 325.896 214.136C326.876 211.923 327.071 211.218 326.719 211.218C326.305 211.219 317.629 216.702 312.772 220.051C308.248 223.146 305.623 225.614 303.488 228.748C302.981 229.49 302.552 230.135 302.529 230.158C302.49 230.197 302.783 229.14 303.136 227.808C304.252 223.753 305.506 217.681 306.035 213.744C306.133 212.902 306.172 212.863 306.682 212.941C307.054 212.98 307.72 212.745 308.738 212.236C313.792 209.612 316.984 206.36 319.511 201.326C321.489 197.35 322.469 193.961 323.84 186.342C324.349 183.6 324.976 180.544 325.25 179.545C326.033 176.744 325.778 176.411 324.035 177.88C322.351 179.29 316.318 185.5 313.987 188.203C310.893 191.807 309.032 194.843 307.681 198.466L307.132 199.955L307.112 197.311C307.112 193.041 306.427 183.876 305.996 182.033L305.878 181.543L306.349 181.974C306.779 182.365 306.877 182.366 307.562 182.131C308.542 181.798 310.207 180.486 311.617 178.958C315.3 174.943 316.925 167.44 316.357 157.118C316.122 152.672 315.554 145.288 315.417 144.837C315.241 144.249 308.562 155.472 306.524 159.742C304.801 163.424 304.585 164.502 304.546 169.692L304.526 173.316L304.057 171.456C303.097 167.676 302.353 165.051 301.491 162.367C300.531 159.37 298.005 152.828 297.104 151.046C296.144 149.146 296.476 149.499 297.71 151.712C299.022 154.043 299.434 154.415 300.159 153.945C301.942 152.77 304.762 145.777 305.095 141.742C305.153 140.959 305.095 139.646 304.978 138.804C304.429 135.317 302.607 128.54 300.609 122.625C299.356 118.885 299.14 118.375 298.769 118.375C298.161 118.375 295.4 125.034 294.655 128.364C293.97 131.341 293.97 143.504 294.655 145.346C294.812 145.816 294.909 146.188 294.87 146.188C294.83 146.186 294.302 145.247 293.695 144.093C290.052 137.296 285.468 130.578 280.141 124.271C277.771 121.45 271.64 115.28 269.035 113.066C267.527 111.793 267.174 111.402 267.468 111.343C268.075 111.245 268.271 110.971 268.506 110.011C268.8 108.874 268.819 105.075 268.525 103.782C268.134 101.961 267.292 100.354 265.313 97.71C263.707 95.5553 259.417 91.325 257.165 89.6602C255.031 88.074 250.566 85.2738 250.173 85.2725C249.781 85.2725 249.859 86.4282 250.427 88.6611C251.034 91.1289 252.327 95.4571 252.797 96.6328C253.619 98.6894 255.265 101.196 257.557 103.919L258.438 104.958L257.753 104.507C256.166 103.469 254.873 102.744 250.897 100.57L246.687 98.2783L246.549 97.1035C246.098 92.9903 242.651 88.9551 237.559 86.5654C235.815 85.7428 225.434 82.491 223.671 82.2168ZM334.993 316.226L333.847 317.515C332.581 318.936 331.245 319.617 329.837 319.559C328.429 319.5 326.859 318.7 325.126 317.157C323.393 315.615 322.417 314.148 322.195 312.757C321.974 311.365 322.496 309.958 323.762 308.536L324.908 307.248L334.993 316.226ZM339.625 293.303C337.906 292.059 336.266 291.57 334.704 291.835C333.131 292.116 331.716 293.124 330.461 294.858C329.206 296.593 328.697 298.244 328.935 299.811C329.16 301.393 330.133 302.806 331.852 304.05L342.526 311.771L344.339 309.266L333.856 301.683C331.817 300.207 331.482 298.522 332.854 296.626C334.225 294.73 335.93 294.52 337.971 295.996L348.452 303.578L350.3 301.024L339.625 293.303ZM64.5371 292.02C65.5044 292.184 66.3185 292.458 66.9785 292.841C67.6108 293.219 68.1618 293.739 68.6318 294.402C70.4893 297.023 69.5015 299.692 65.668 302.409C61.8344 305.127 58.9883 305.175 57.1309 302.555C56.7183 301.973 56.434 301.348 56.2773 300.682C56.1045 300.026 56.0645 299.301 56.1572 298.506L53.1973 298.6C53.0851 299.675 53.1579 300.669 53.415 301.58C53.656 302.503 54.092 303.409 54.7227 304.299C56.2246 306.418 58.0743 307.537 60.2725 307.655C62.4547 307.785 64.8726 306.91 67.5254 305.029C70.1779 303.149 71.8125 301.152 72.4287 299.039C73.0286 296.937 72.5772 294.826 71.0752 292.707C70.3644 291.704 69.5586 290.927 68.6572 290.375C67.7557 289.823 66.6689 289.439 65.3975 289.223L64.5371 292.02ZM338.799 282.808L352.981 291.016L349.928 296.292L352.477 297.767L360.163 284.484L357.614 283.01L354.561 288.287L340.378 280.079L338.799 282.808ZM56.9053 275.737L61.4893 283.839L56.7256 286.534L52.8457 279.674L50.3086 281.109L54.1895 287.969L49.7373 290.487L45.1533 282.386L42.6162 283.82L48.7529 294.667L65.5781 285.148L59.4424 274.302L56.9053 275.737ZM302.396 278.371C302.14 278.215 299.477 278.195 297.519 278.332C285.355 279.194 281.692 279.644 277.324 280.741C272.036 282.073 268.197 283.934 263.574 287.361C260.519 289.633 259.696 290.711 260.205 291.729C260.949 293.14 267.1 294.471 271.565 294.178C276.717 293.825 282.711 291.867 287.862 288.851C293.777 285.384 302.257 279.607 302.553 278.842C302.611 278.685 302.552 278.469 302.396 278.371ZM351.836 261.257C350.679 261.803 349.68 262.528 348.84 263.434C347.999 264.339 347.299 265.416 346.739 266.664C345.815 268.726 345.581 270.533 346.037 272.085C346.511 273.645 347.589 274.802 349.271 275.557C350.665 276.181 351.896 276.319 352.964 275.973C354.05 275.634 355.09 274.817 356.082 273.524L358.064 270.991C358.594 270.294 359.099 269.847 359.579 269.649C360.069 269.478 360.603 269.523 361.182 269.782C361.96 270.131 362.426 270.666 362.581 271.387C362.746 272.134 362.589 273.042 362.11 274.109C361.372 275.756 360.256 276.96 358.762 277.725L360.49 280.194C362.422 279.083 363.863 277.469 364.812 275.353C365.687 273.399 365.898 271.668 365.444 270.161C365.008 268.662 363.976 267.547 362.348 266.817C361.063 266.242 359.878 266.123 358.792 266.462C357.706 266.801 356.666 267.616 355.674 268.909L353.718 271.455C353.17 272.144 352.651 272.574 352.161 272.745C351.681 272.943 351.107 272.892 350.438 272.592C349.605 272.219 349.097 271.632 348.912 270.832C348.738 270.058 348.906 269.102 349.417 267.962C349.847 267.003 350.393 266.172 351.056 265.47C351.736 264.776 352.542 264.214 353.474 263.784L351.836 261.257ZM46.002 245.847C43.9972 245.177 41.4273 245.344 38.293 246.348C35.1396 247.357 32.9506 248.714 31.7266 250.418C30.5026 252.121 30.2632 254.135 31.0068 256.457C31.7505 258.779 33.1149 260.278 35.1006 260.954C37.0865 261.63 39.6563 261.463 42.8096 260.453C45.9438 259.449 48.133 258.093 49.376 256.384C50.6001 254.68 50.8404 252.666 50.0967 250.344C49.3529 248.021 47.9878 246.522 46.002 245.847ZM39.2725 249.407C43.7476 247.974 46.4121 248.589 47.2646 251.251C48.1172 253.913 46.3052 255.961 41.8301 257.395C37.3554 258.827 34.6916 258.213 33.8389 255.551C32.9863 252.888 34.7975 250.84 39.2725 249.407ZM201.544 147.388C190.203 147.388 179.328 151.893 171.309 159.912C163.29 167.931 158.784 178.807 158.784 190.147V232.906C158.784 234.968 159.604 236.946 161.062 238.404C162.519 239.862 164.497 240.681 166.559 240.681C168.62 240.681 170.599 239.862 172.057 238.404C173.515 236.946 174.333 234.968 174.333 232.906V205.696C174.333 204.665 174.743 203.676 175.472 202.947C176.201 202.218 177.19 201.809 178.221 201.809C179.252 201.809 180.241 202.218 180.97 202.947C181.699 203.676 182.107 204.665 182.107 205.696V248.455C182.107 250.517 182.927 252.495 184.385 253.953C185.843 255.411 187.82 256.229 189.882 256.229C191.944 256.229 193.922 255.411 195.38 253.953C196.838 252.495 197.656 250.517 197.656 248.455V209.583C197.656 208.552 198.066 207.564 198.795 206.835C199.524 206.106 200.513 205.696 201.544 205.696C202.575 205.696 203.564 206.106 204.293 206.835C205.022 207.564 205.431 208.552 205.431 209.583V248.457C205.431 250.519 206.25 252.496 207.708 253.954C209.166 255.412 211.143 256.231 213.205 256.231C215.267 256.231 217.245 255.412 218.703 253.954C220.161 252.496 220.979 250.519 220.979 248.457V201.809C220.98 200.778 221.389 199.789 222.118 199.061C222.847 198.332 223.836 197.922 224.867 197.922C225.898 197.922 226.887 198.332 227.616 199.061C228.345 199.789 228.754 200.778 228.754 201.809V232.906C228.754 234.968 229.573 236.946 231.031 238.404C232.489 239.862 234.467 240.681 236.528 240.681C238.59 240.681 240.568 239.862 242.026 238.404C243.484 236.946 244.303 234.968 244.303 232.906V190.147C244.303 178.807 239.798 167.931 231.779 159.912C223.76 151.893 212.884 147.388 201.544 147.388ZM355.705 242.781L358.551 243.407L360.551 234.316L365.896 235.491L364.202 243.188L367.049 243.814L368.742 236.117L373.738 237.217L371.738 246.308L374.585 246.935L377.262 234.764L358.382 230.611L355.705 242.781ZM33.626 231.691L35.2539 239.434L30.0439 240.528L28.123 231.39L25.2705 231.989L27.8408 244.214L46.7578 240.236L46.1094 237.151L38.1055 238.834L36.4785 231.092L33.626 231.691ZM370.206 214.512C366.976 214.141 364.425 214.536 362.556 215.698C360.706 216.863 359.632 218.736 359.336 221.316C359.196 222.538 359.276 223.654 359.579 224.667C359.882 225.68 360.434 226.691 361.236 227.701L363.745 226.193C363.135 225.425 362.712 224.678 362.476 223.952C362.257 223.248 362.194 222.492 362.287 221.685C362.654 218.494 365.171 217.167 369.839 217.703C374.507 218.239 376.659 220.103 376.292 223.294C376.211 224.003 376.005 224.658 375.677 225.259C375.368 225.862 374.914 226.428 374.314 226.958L376.58 228.865C377.382 228.139 377.991 227.351 378.408 226.501C378.845 225.653 379.126 224.687 379.25 223.604C379.546 221.023 378.916 218.955 377.358 217.399C375.821 215.846 373.436 214.883 370.206 214.512ZM360.911 200.244L375.631 200.441L360.812 207.56L360.771 210.593L380.102 210.853L380.14 207.998L366.669 207.816L380.23 201.277L380.279 197.649L360.949 197.389L360.911 200.244ZM33.9326 199.715C33.2645 197.101 31.4532 195.802 28.499 195.817C26.6358 195.827 25.2312 196.361 24.2852 197.416C23.3191 198.452 22.8409 199.982 22.8516 202.004L22.8887 208.963L42.2197 208.86L42.2031 205.679L34.2031 205.721L34.1895 203.163L42.165 198.511L42.1455 194.823L33.9326 199.715ZM28.5166 199.029C29.4879 199.024 30.193 199.269 30.6318 199.762C31.0706 200.255 31.2937 201.077 31.2998 202.227L31.3184 205.736L25.7861 205.766L25.7676 202.256C25.7615 201.106 25.9757 200.282 26.4092 199.784C26.8229 199.286 27.5254 199.035 28.5166 199.029ZM359.762 182.034L360.847 194.448L363.751 194.194L362.94 184.921L368.392 184.444L369.078 192.296L371.981 192.042L371.295 184.19L376.391 183.745L377.201 193.019L380.105 192.766L379.021 180.352L359.762 182.034ZM23.8467 182.727L23.5205 186.102L42.1504 194.297L42.4531 191.158L38.0078 189.234L38.6514 182.574L43.3828 181.538L43.7012 178.252L23.8467 182.727ZM201.544 159.05C218.1 159.05 226.263 174.986 226.606 175.672C226.742 175.942 226.812 176.24 226.812 176.542C226.812 176.844 226.742 177.142 226.606 177.412C226.264 178.097 218.101 194.034 201.544 194.034C184.988 194.034 176.825 178.098 176.481 177.412C176.346 177.142 176.275 176.844 176.275 176.542C176.275 176.24 176.346 175.942 176.481 175.672C176.825 174.985 184.988 159.05 201.544 159.05ZM35.1924 188.066L27.6719 184.89L35.6621 183.212L35.1924 188.066ZM204.519 169.359C203.098 168.771 201.535 168.617 200.027 168.917C198.519 169.217 197.134 169.958 196.047 171.045C194.96 172.132 194.219 173.517 193.919 175.025C193.619 176.533 193.773 178.097 194.361 179.518C194.95 180.938 195.946 182.152 197.225 183.006C198.503 183.86 200.006 184.316 201.544 184.316C203.606 184.316 205.583 183.497 207.041 182.039C208.499 180.581 209.318 178.604 209.318 176.542C209.318 175.004 208.862 173.501 208.008 172.223C207.154 170.944 205.939 169.948 204.519 169.359ZM356.83 165.42L357.429 168.545L365.286 167.041L365.767 169.554L358.775 175.585L359.469 179.207L366.648 172.897C367.783 175.345 369.802 176.291 372.703 175.735C374.534 175.385 375.817 174.604 376.555 173.394C377.315 172.198 377.505 170.607 377.125 168.621L375.816 161.786L356.83 165.42ZM37.2559 161.224C34.1457 160.599 31.6485 160.846 29.7656 161.964C27.8673 163.059 26.6433 164.977 26.0928 167.718L25.0967 172.675L44.0498 176.481L45.0684 171.408C45.6111 168.706 45.2259 166.495 43.9131 164.775C42.5847 163.032 40.3659 161.848 37.2559 161.224ZM31.3447 164.678C32.5896 164.018 34.3488 163.916 36.623 164.373C38.8974 164.83 40.4816 165.603 41.375 166.692C42.2682 167.782 42.5271 169.26 42.1523 171.126L41.8125 172.816L28.5752 170.157L28.915 168.467C29.2899 166.601 30.0999 165.338 31.3447 164.678ZM374.212 168.906C374.428 170.036 374.368 170.884 374.033 171.453C373.717 172.018 373.073 172.395 372.1 172.581C371.145 172.764 370.407 172.652 369.886 172.247C369.364 171.842 368.995 171.075 368.779 169.946L368.119 166.499L373.553 165.459L374.212 168.906ZM352.513 150.409L356.096 162.345L358.887 161.507L356.211 152.591L361.452 151.018L363.718 158.566L366.51 157.729L364.243 150.18L369.143 148.709L371.819 157.625L374.61 156.787L371.028 144.852L352.513 150.409ZM28.9688 154.834L31.752 155.698L33.1719 151.125L46.0674 155.128L44.6475 159.701L47.4307 160.565L51.2051 148.409L48.4209 147.545L47.002 152.117L34.1064 148.114L35.5264 143.542L32.7432 142.678L28.9688 154.834ZM48.9453 128.65C45.9012 127.349 43.3589 126.941 41.3184 127.427C39.2777 127.913 37.7773 129.276 36.8184 131.519C35.8595 133.761 35.9094 135.788 36.9678 137.599C38.0262 139.41 40.0777 140.967 43.1221 142.269C46.1479 143.563 48.6902 143.97 50.749 143.492C52.7897 143.006 54.2901 141.643 55.249 139.4C56.2079 137.158 56.158 135.131 55.0996 133.32C54.023 131.501 51.9715 129.945 48.9453 128.65ZM346.56 135.458L347.771 138.369L355.322 135.229L358.359 142.533L361.051 141.414L358.013 134.109L362.929 132.065L366.515 140.688L369.205 139.568L364.409 128.035L346.56 135.458ZM39.5527 132.688C40.6521 130.117 43.3623 129.756 47.6826 131.604C52.0029 133.451 53.6135 135.66 52.5146 138.23C51.4154 140.801 48.7052 141.163 44.3848 139.315C40.0643 137.468 38.4535 135.258 39.5527 132.688ZM338.682 120.378L340.198 123.176L347.231 119.363L348.45 121.612L343.613 129.477L345.371 132.72L350.304 124.532C352.126 126.521 354.336 126.812 356.933 125.404C358.571 124.516 359.559 123.383 359.895 122.006C360.257 120.637 359.958 119.063 358.994 117.285L355.678 111.166L338.682 120.378ZM275.503 98.9756C275.542 100.425 275.639 103.559 275.698 105.929C275.835 111.178 276.11 114.234 276.6 116.192C277.109 118.19 279.029 122.01 280.576 124.047C282.339 126.397 286.335 130.119 287.079 130.119C288.587 130.118 289.547 121.148 288.509 116.506C287.706 112.804 285.805 109.141 282.495 104.852C281.241 103.245 277.05 98.1724 275.934 96.9385L275.386 96.3311L275.503 98.9756ZM58.3271 125.398L43.9697 117.438L42.4404 120.194L59.3467 129.568L65.4043 118.645L62.8555 117.23L58.3271 125.398ZM356.304 118.438C356.852 119.449 357.051 120.276 356.904 120.92C356.774 121.554 356.274 122.108 355.402 122.58C354.548 123.043 353.811 123.161 353.191 122.933C352.572 122.705 351.988 122.085 351.44 121.074L349.769 117.989L354.632 115.354L356.304 118.438ZM330.023 107.378L337.051 117.668L339.457 116.024L334.208 108.338L338.727 105.251L343.171 111.76L345.578 110.116L341.134 103.607L345.358 100.723L350.607 108.41L353.015 106.767L345.987 96.4756L330.023 107.378ZM59.7178 96.5527C57.6211 96.6156 55.8762 97.6478 54.4834 99.6494C53.0906 101.651 52.7294 103.647 53.3994 105.635C54.0695 107.622 55.7637 109.562 58.4814 111.453C61.1829 113.333 63.5902 114.247 65.7031 114.195C67.7998 114.133 69.5447 113.1 70.9375 111.099C72.3303 109.097 72.6915 107.101 72.0215 105.113C71.3351 103.114 69.6418 101.175 66.9404 99.2949C64.2225 97.4038 61.8146 96.4899 59.7178 96.5527ZM56.9248 101.349C58.5215 99.0539 61.2483 99.248 65.1055 101.932C68.9627 104.615 70.0927 107.105 68.4961 109.399C66.8994 111.694 64.1726 111.5 60.3154 108.816C56.4583 106.133 55.3283 103.643 56.9248 101.349ZM71.3438 81.7334C70.2729 81.8856 69.3265 82.1965 68.5049 82.667C67.6681 83.1247 66.8946 83.7681 66.1846 84.5957C64.4936 86.5668 63.8572 88.6327 64.2754 90.7939C64.6787 92.9425 66.1142 95.0761 68.582 97.1934C70.162 98.5488 71.7115 99.4992 73.2295 100.044C74.7451 100.561 76.1664 100.669 77.4932 100.371C78.818 100.045 79.971 99.3097 80.9521 98.166C81.5072 97.519 81.9053 96.8421 82.1465 96.1348C82.4005 95.4124 82.509 94.6168 82.4707 93.748L83.7021 94.4131L85.0576 92.833L76.6387 85.6094L72.3594 90.5977L74.5713 92.4961L76.7979 89.9004L80.2295 92.8438C80.201 93.9424 79.8187 94.9207 79.083 95.7783C77.0432 98.1559 74.2402 97.8145 70.6738 94.7549C67.1074 91.6952 66.3695 88.9466 68.4609 86.5088C68.9256 85.9672 69.4626 85.5392 70.0713 85.2256C70.6649 84.8991 71.3589 84.6849 72.1523 84.582L71.3438 81.7334ZM331.017 82.7559L334.946 87.417L322.417 97.9785L324.448 100.39L336.979 89.8281L340.907 94.4893L343.159 92.5918L333.269 80.8584L331.017 82.7559ZM307.605 82.7129L309.657 84.6992L319.898 74.125L314.912 89.7891L317.091 91.9004L330.54 78.0137L328.489 76.0273L319.116 85.7051L323.661 71.3516L321.055 68.8271L307.605 82.7129ZM73.8438 76.6465L75.8506 78.7598L79.3223 75.4619L88.6211 85.252L85.1494 88.5498L87.1562 90.6631L96.3857 81.8965L94.3789 79.7832L90.9072 83.0811L81.6084 73.291L85.0801 69.9932L83.0732 67.8799L73.8438 76.6465ZM305.298 59.7812L309.057 62.7471L300.691 73.3467L296.933 70.3799L295.127 72.668L305.12 80.5537L306.925 78.2656L303.166 75.2998L311.531 64.7002L315.29 67.666L317.096 65.3789L307.103 57.4932L305.298 59.7812ZM98.6045 57.6602C97.5248 57.5928 96.5346 57.7071 95.6348 58.002C94.7229 58.2812 93.8361 58.7549 92.9736 59.4219C90.919 61.0108 89.8775 62.906 89.8506 65.1074C89.8116 67.2931 90.7873 69.6721 92.7764 72.2441C94.7654 74.816 96.8286 76.3659 98.9658 76.8936C101.091 77.4054 103.182 76.8673 105.236 75.2783C106.209 74.5263 106.952 73.6883 107.466 72.7646C107.98 71.841 108.318 70.7392 108.481 69.46L105.65 68.7158C105.526 69.6892 105.286 70.514 104.932 71.1895C104.58 71.8371 104.083 72.4099 103.44 72.9072C100.9 74.8721 98.1919 73.996 95.3174 70.2793C92.4427 66.5622 92.2756 63.7208 94.8164 61.7559C95.381 61.3193 95.9928 61.0085 96.6523 60.8242C97.2997 60.6243 98.0224 60.5547 98.8203 60.6143L98.6045 57.6602ZM105.778 50.9189L110.594 70.6924L113.27 69.0264L112.096 64.3271L117.776 60.79L121.475 63.918L124.277 62.1729L108.657 49.127L105.778 50.9189ZM115.453 58.8037L111.312 61.3818L109.265 53.4775L115.453 58.8037ZM118.12 43.6562L126.616 61.0215L137.836 55.5312L136.555 52.9131L128.167 57.0176L120.952 42.2715L118.12 43.6562ZM273.22 41.1377L278.673 43.8652L271.341 58.5205L274.16 59.9307L281.492 45.2754L286.944 48.0039L288.262 45.3701L274.537 38.5039L273.22 41.1377ZM251.705 50.3789L254.376 51.3887L259.584 37.6191L261.219 53.9766L264.057 55.0498L270.895 36.9688L268.225 35.959L263.459 48.5596L261.938 33.5811L258.544 32.2979L251.705 50.3789ZM236.878 46.2891L248.924 49.4805L249.67 46.6631L240.672 44.2793L242.073 38.9893L249.691 41.0078L250.438 38.1904L242.819 36.1719L244.129 31.2275L253.128 33.6104L253.874 30.793L241.828 27.6025L236.878 46.2891ZM159.76 28.9395C158.651 28.3623 157.328 28.269 155.791 28.6602C154.196 29.066 153.038 29.8216 152.316 30.9258C151.614 32.025 151.452 33.3146 151.828 34.7939C152.024 35.5623 152.336 36.2294 152.767 36.7949C153.211 37.3365 153.849 37.9113 154.679 38.5186L154.693 38.5762C153.846 39.4261 153.258 40.3328 152.931 41.2959C152.617 42.2349 152.607 43.2808 152.9 44.4336C153.311 46.0475 154.138 47.2076 155.382 47.9141C156.625 48.6205 158.083 48.7613 159.755 48.3359C160.754 48.0817 161.61 47.669 162.324 47.0986C163.053 46.5041 163.637 45.7423 164.075 44.8125L166.324 46.2959L170.389 45.2617L165.253 41.9648C165.51 41.2858 165.733 40.4724 165.921 39.5244C166.128 38.5714 166.312 37.4405 166.47 36.1318L163.619 35.7832C163.566 36.7788 163.484 37.6689 163.377 38.4531C163.289 39.2324 163.177 39.9157 163.04 40.5029L159.229 38.0664L159.214 38.0088L159.357 37.8496C160.402 36.9701 161.172 36.0578 161.668 35.1133C162.159 34.1495 162.253 33.0721 161.95 31.8809C161.593 30.4782 160.863 29.4975 159.76 28.9395ZM161.934 43.3926C161.595 43.9903 161.212 44.4564 160.785 44.79C160.378 45.1186 159.905 45.3514 159.367 45.4883C158.522 45.7033 157.786 45.6244 157.159 45.252C156.533 44.8795 156.112 44.271 155.896 43.4258C155.74 42.8109 155.742 42.2165 155.903 41.6436C156.064 41.0707 156.39 40.5384 156.878 40.0459L161.934 43.3926ZM221.519 27.0293L227.541 27.9795L224.987 44.166L228.102 44.6572L230.654 28.4707L236.677 29.4209L237.136 26.5117L221.978 24.1211L221.519 27.0293ZM202.348 42.2588L205.496 42.4316L207.232 37.9102L213.914 38.2764L215.147 42.96L218.443 43.1406L213.146 23.4902L209.761 23.3047L202.348 42.2588ZM187.676 23.5693L188.559 42.8809L201.036 42.3105L200.903 39.3994L191.574 39.8252L190.825 23.4258L187.676 23.5693ZM156.444 31.2256C157.117 31.0545 157.692 31.1029 158.169 31.3701C158.641 31.6182 158.96 32.0687 159.126 32.7217C159.297 33.3941 159.235 33.9932 158.939 34.5186C158.663 35.0391 158.194 35.5679 157.532 36.1045L156.95 36.5898C156.28 36.1262 155.773 35.7026 155.43 35.3193C155.106 34.9312 154.883 34.4969 154.761 34.0166C154.58 33.3059 154.633 32.7095 154.919 32.2275C155.225 31.7406 155.733 31.4065 156.444 31.2256ZM213.153 35.3154L208.283 35.0488L211.145 27.4014L213.153 35.3154Z" fill="#00FF00"/>
</svg>
